<?xml version="1.0" encoding="UTF-8" standalone="no"?>
<svg
   xmlns:dc="http://purl.org/dc/elements/1.1/"
   xmlns:cc="http://creativecommons.org/ns#"
   xmlns:rdf="http://www.w3.org/1999/02/22-rdf-syntax-ns#"
   xmlns:svg="http://www.w3.org/2000/svg"
   xmlns="http://www.w3.org/2000/svg"
   viewBox="0 0 912 464"
   height="464"
   width="912"
   xml:space="preserve"
   id="svg2"
   version="1.1"><metadata
     id="metadata8"><rdf:RDF><cc:Work
         rdf:about=""><dc:format>image/svg+xml</dc:format><dc:type
           rdf:resource="http://purl.org/dc/dcmitype/StillImage" /></cc:Work></rdf:RDF></metadata><defs
     id="defs6"><clipPath
       id="clipPath166"
       clipPathUnits="userSpaceOnUse"><path
         id="path164"
         d="M 889.168,3219.17 H 6193.33 V 452.5 H 889.168 Z" /></clipPath><clipPath
       id="clipPath176"
       clipPathUnits="userSpaceOnUse"><path
         id="path174"
         d="m 1023.33,2858.33 h 5035 V 610.832 h -5035 z" /></clipPath><clipPath
       id="clipPath216"
       clipPathUnits="userSpaceOnUse"><path
         id="path214"
         d="M 889.168,3219.17 H 6193.33 V 452.5 H 889.168 Z" /></clipPath><clipPath
       id="clipPath226"
       clipPathUnits="userSpaceOnUse"><path
         id="path224"
         d="m 1023.33,2265 h 5035 V 585.832 h -5035 z" /></clipPath><clipPath
       id="clipPath266"
       clipPathUnits="userSpaceOnUse"><path
         id="path264"
         d="M 889.168,3219.17 H 6193.33 V 452.5 H 889.168 Z" /></clipPath><clipPath
       id="clipPath276"
       clipPathUnits="userSpaceOnUse"><path
         id="path274"
         d="m 1023.33,1356.67 h 5035 V 488.332 h -5035 z" /></clipPath><clipPath
       id="clipPath356"
       clipPathUnits="userSpaceOnUse"><path
         id="path354"
         d="M 956.668,3164.17 H 4475.83 V 2333.33 H 956.668 Z" /></clipPath><clipPath
       id="clipPath366"
       clipPathUnits="userSpaceOnUse"><path
         id="path364"
         d="m 1045,3135 h 244.17 V 2890.83 H 1045 Z" /></clipPath><clipPath
       id="clipPath384"
       clipPathUnits="userSpaceOnUse"><path
         id="path382"
         d="M 956.668,3164.17 H 4475.83 V 2333.33 H 956.668 Z" /></clipPath><clipPath
       id="clipPath394"
       clipPathUnits="userSpaceOnUse"><path
         id="path392"
         d="m 1045,2870.83 h 244.17 V 2626.67 H 1045 Z" /></clipPath><clipPath
       id="clipPath412"
       clipPathUnits="userSpaceOnUse"><path
         id="path410"
         d="M 956.668,3164.17 H 4475.83 V 2333.33 H 956.668 Z" /></clipPath><clipPath
       id="clipPath422"
       clipPathUnits="userSpaceOnUse"><path
         id="path420"
         d="m 1045,2607.5 h 244.17 V 2363.33 H 1045 Z" /></clipPath></defs><g
     transform="matrix(1.3333333,0,0,-1.3333333,0,464)"
     id="g10"><g
       transform="scale(0.1)"
       id="g12"><path
         id="path14"
         style="fill:#ffffff;fill-opacity:1;fill-rule:nonzero;stroke:none"
         d="M 0,0 H 6840 V 3480 H 0 Z" /><path
         id="path16"
         style="fill:#ffffff;fill-opacity:1;fill-rule:evenodd;stroke:none"
         d="m 889.168,453.332 h 5303.33 v 2766.67 H 889.168 Z" /><path
         id="path18"
         style="fill:none;stroke:#ffffff;stroke-width:5;stroke-linecap:butt;stroke-linejoin:round;stroke-miterlimit:10;stroke-dasharray:none;stroke-opacity:1"
         d="M 889.168,453.332 V 3220 H 6192.5 V 453.332 H 889.168" /><path
         id="path20"
         style="fill:none;stroke:#000000;stroke-width:5;stroke-linecap:butt;stroke-linejoin:round;stroke-miterlimit:10;stroke-dasharray:none;stroke-opacity:1"
         d="M 889.168,453.332 H 6192.5" /><path
         id="path22"
         style="fill:none;stroke:#000000;stroke-width:5;stroke-linecap:butt;stroke-linejoin:round;stroke-miterlimit:10;stroke-dasharray:none;stroke-opacity:1"
         d="M 889.168,3220 H 6192.5" /><path
         id="path24"
         style="fill:none;stroke:#000000;stroke-width:5;stroke-linecap:butt;stroke-linejoin:round;stroke-miterlimit:10;stroke-dasharray:none;stroke-opacity:1"
         d="M 889.168,453.332 V 3220" /><path
         id="path26"
         style="fill:none;stroke:#000000;stroke-width:5;stroke-linecap:butt;stroke-linejoin:round;stroke-miterlimit:10;stroke-dasharray:none;stroke-opacity:1"
         d="M 6192.5,453.332 V 3220" /><path
         id="path28"
         style="fill:none;stroke:#000000;stroke-width:5;stroke-linecap:butt;stroke-linejoin:round;stroke-miterlimit:10;stroke-dasharray:none;stroke-opacity:1"
         d="M 889.168,453.332 H 6192.5" /><path
         id="path30"
         style="fill:none;stroke:#000000;stroke-width:5;stroke-linecap:butt;stroke-linejoin:round;stroke-miterlimit:10;stroke-dasharray:none;stroke-opacity:1"
         d="M 889.168,453.332 V 3220" /><path
         id="path32"
         style="fill:none;stroke:#000000;stroke-width:5;stroke-linecap:butt;stroke-linejoin:round;stroke-miterlimit:10;stroke-dasharray:none;stroke-opacity:1"
         d="m 1145,453.332 v 53.336" /><path
         id="path34"
         style="fill:none;stroke:#000000;stroke-width:5;stroke-linecap:butt;stroke-linejoin:round;stroke-miterlimit:10;stroke-dasharray:none;stroke-opacity:1"
         d="m 1145,3219.17 v -52.5" /><g
         transform="scale(10)"
         id="g36"><text
           id="text40"
           style="font-variant:normal;font-weight:normal;font-size:20px;font-family:Helvetica;-inkscape-font-specification:Helvetica;writing-mode:lr-tb;fill:#000000;fill-opacity:1;fill-rule:nonzero;stroke:none"
           transform="matrix(1,0,0,-1,103.417,23.9168)"><tspan
             id="tspan38"
             y="0"
             x="0 11.12">16</tspan></text>
</g><path
         id="path42"
         style="fill:none;stroke:#000000;stroke-width:5;stroke-linecap:butt;stroke-linejoin:round;stroke-miterlimit:10;stroke-dasharray:none;stroke-opacity:1"
         d="m 1830,453.332 v 53.336" /><path
         id="path44"
         style="fill:none;stroke:#000000;stroke-width:5;stroke-linecap:butt;stroke-linejoin:round;stroke-miterlimit:10;stroke-dasharray:none;stroke-opacity:1"
         d="m 1830,3219.17 v -52.5" /><g
         transform="scale(10)"
         id="g46"><text
           id="text50"
           style="font-variant:normal;font-weight:normal;font-size:20px;font-family:Helvetica;-inkscape-font-specification:Helvetica;writing-mode:lr-tb;fill:#000000;fill-opacity:1;fill-rule:nonzero;stroke:none"
           transform="matrix(1,0,0,-1,171.917,23.9168)"><tspan
             id="tspan48"
             y="0"
             x="0 11.12">32</tspan></text>
</g><path
         id="path52"
         style="fill:none;stroke:#000000;stroke-width:5;stroke-linecap:butt;stroke-linejoin:round;stroke-miterlimit:10;stroke-dasharray:none;stroke-opacity:1"
         d="m 2514.17,453.332 v 53.336" /><path
         id="path54"
         style="fill:none;stroke:#000000;stroke-width:5;stroke-linecap:butt;stroke-linejoin:round;stroke-miterlimit:10;stroke-dasharray:none;stroke-opacity:1"
         d="m 2514.17,3219.17 v -52.5" /><g
         transform="scale(10)"
         id="g56"><text
           id="text60"
           style="font-variant:normal;font-weight:normal;font-size:20px;font-family:Helvetica;-inkscape-font-specification:Helvetica;writing-mode:lr-tb;fill:#000000;fill-opacity:1;fill-rule:nonzero;stroke:none"
           transform="matrix(1,0,0,-1,240.333,23.9168)"><tspan
             id="tspan58"
             y="0"
             x="0 11.12">48</tspan></text>
</g><path
         id="path62"
         style="fill:none;stroke:#000000;stroke-width:5;stroke-linecap:butt;stroke-linejoin:round;stroke-miterlimit:10;stroke-dasharray:none;stroke-opacity:1"
         d="m 3198.33,453.332 v 53.336" /><path
         id="path64"
         style="fill:none;stroke:#000000;stroke-width:5;stroke-linecap:butt;stroke-linejoin:round;stroke-miterlimit:10;stroke-dasharray:none;stroke-opacity:1"
         d="m 3198.33,3219.17 v -52.5" /><g
         transform="scale(10)"
         id="g66"><text
           id="text70"
           style="font-variant:normal;font-weight:normal;font-size:20px;font-family:Helvetica;-inkscape-font-specification:Helvetica;writing-mode:lr-tb;fill:#000000;fill-opacity:1;fill-rule:nonzero;stroke:none"
           transform="matrix(1,0,0,-1,308.75,23.9168)"><tspan
             id="tspan68"
             y="0"
             x="0 11.12">64</tspan></text>
</g><path
         id="path72"
         style="fill:none;stroke:#000000;stroke-width:5;stroke-linecap:butt;stroke-linejoin:round;stroke-miterlimit:10;stroke-dasharray:none;stroke-opacity:1"
         d="m 3882.5,453.332 v 53.336" /><path
         id="path74"
         style="fill:none;stroke:#000000;stroke-width:5;stroke-linecap:butt;stroke-linejoin:round;stroke-miterlimit:10;stroke-dasharray:none;stroke-opacity:1"
         d="m 3882.5,3219.17 v -52.5" /><g
         transform="scale(10)"
         id="g76"><text
           id="text80"
           style="font-variant:normal;font-weight:normal;font-size:20px;font-family:Helvetica;-inkscape-font-specification:Helvetica;writing-mode:lr-tb;fill:#000000;fill-opacity:1;fill-rule:nonzero;stroke:none"
           transform="matrix(1,0,0,-1,377.167,23.9168)"><tspan
             id="tspan78"
             y="0"
             x="0 11.12">80</tspan></text>
</g><path
         id="path82"
         style="fill:none;stroke:#000000;stroke-width:5;stroke-linecap:butt;stroke-linejoin:round;stroke-miterlimit:10;stroke-dasharray:none;stroke-opacity:1"
         d="m 4566.67,453.332 v 53.336" /><path
         id="path84"
         style="fill:none;stroke:#000000;stroke-width:5;stroke-linecap:butt;stroke-linejoin:round;stroke-miterlimit:10;stroke-dasharray:none;stroke-opacity:1"
         d="m 4566.67,3219.17 v -52.5" /><g
         transform="scale(10)"
         id="g86"><text
           id="text90"
           style="font-variant:normal;font-weight:normal;font-size:20px;font-family:Helvetica;-inkscape-font-specification:Helvetica;writing-mode:lr-tb;fill:#000000;fill-opacity:1;fill-rule:nonzero;stroke:none"
           transform="matrix(1,0,0,-1,445.583,23.9168)"><tspan
             id="tspan88"
             y="0"
             x="0 11.12">96</tspan></text>
</g><path
         id="path92"
         style="fill:none;stroke:#000000;stroke-width:5;stroke-linecap:butt;stroke-linejoin:round;stroke-miterlimit:10;stroke-dasharray:none;stroke-opacity:1"
         d="m 5250.83,453.332 v 53.336" /><path
         id="path94"
         style="fill:none;stroke:#000000;stroke-width:5;stroke-linecap:butt;stroke-linejoin:round;stroke-miterlimit:10;stroke-dasharray:none;stroke-opacity:1"
         d="m 5250.83,3219.17 v -52.5" /><g
         transform="scale(10)"
         id="g96"><text
           id="text100"
           style="font-variant:normal;font-weight:normal;font-size:20px;font-family:Helvetica;-inkscape-font-specification:Helvetica;writing-mode:lr-tb;fill:#000000;fill-opacity:1;fill-rule:nonzero;stroke:none"
           transform="matrix(1,0,0,-1,508.417,23.9168)"><tspan
             id="tspan98"
             y="0"
             x="0 11.12 22.24">112</tspan></text>
</g><path
         id="path102"
         style="fill:none;stroke:#000000;stroke-width:5;stroke-linecap:butt;stroke-linejoin:round;stroke-miterlimit:10;stroke-dasharray:none;stroke-opacity:1"
         d="m 5935.83,453.332 v 53.336" /><path
         id="path104"
         style="fill:none;stroke:#000000;stroke-width:5;stroke-linecap:butt;stroke-linejoin:round;stroke-miterlimit:10;stroke-dasharray:none;stroke-opacity:1"
         d="m 5935.83,3219.17 v -52.5" /><g
         transform="scale(10)"
         id="g106"><text
           id="text110"
           style="font-variant:normal;font-weight:normal;font-size:20px;font-family:Helvetica;-inkscape-font-specification:Helvetica;writing-mode:lr-tb;fill:#000000;fill-opacity:1;fill-rule:nonzero;stroke:none"
           transform="matrix(1,0,0,-1,576.917,23.9168)"><tspan
             id="tspan108"
             y="0"
             x="0 11.12 22.24">128</tspan></text>
</g><path
         id="path112"
         style="fill:none;stroke:#000000;stroke-width:5;stroke-linecap:butt;stroke-linejoin:round;stroke-miterlimit:10;stroke-dasharray:none;stroke-opacity:1"
         d="m 889.168,453.332 h 52.5" /><path
         id="path114"
         style="fill:none;stroke:#000000;stroke-width:5;stroke-linecap:butt;stroke-linejoin:round;stroke-miterlimit:10;stroke-dasharray:none;stroke-opacity:1"
         d="m 6192.5,453.332 h -53.33" /><g
         transform="scale(10)"
         id="g116"><text
           id="text120"
           style="font-variant:normal;font-weight:normal;font-size:20px;font-family:Helvetica;-inkscape-font-specification:Helvetica;writing-mode:lr-tb;fill:#000000;fill-opacity:1;fill-rule:nonzero;stroke:none"
           transform="matrix(1,0,0,-1,74.9168,37.9168)"><tspan
             id="tspan118"
             y="0"
             x="0">0</tspan></text>
</g><path
         id="path122"
         style="fill:none;stroke:#000000;stroke-width:5;stroke-linecap:butt;stroke-linejoin:round;stroke-miterlimit:10;stroke-dasharray:none;stroke-opacity:1"
         d="m 889.168,1375.83 h 52.5" /><path
         id="path124"
         style="fill:none;stroke:#000000;stroke-width:5;stroke-linecap:butt;stroke-linejoin:round;stroke-miterlimit:10;stroke-dasharray:none;stroke-opacity:1"
         d="m 6192.5,1375.83 h -53.33" /><g
         transform="scale(10)"
         id="g126"><text
           id="text130"
           style="font-variant:normal;font-weight:normal;font-size:20px;font-family:Helvetica;-inkscape-font-specification:Helvetica;writing-mode:lr-tb;fill:#000000;fill-opacity:1;fill-rule:nonzero;stroke:none"
           transform="matrix(1,0,0,-1,63.8332,130.167)"><tspan
             id="tspan128"
             y="0"
             x="0 11.12">50</tspan></text>
</g><path
         id="path132"
         style="fill:none;stroke:#000000;stroke-width:5;stroke-linecap:butt;stroke-linejoin:round;stroke-miterlimit:10;stroke-dasharray:none;stroke-opacity:1"
         d="m 889.168,2297.5 h 52.5" /><path
         id="path134"
         style="fill:none;stroke:#000000;stroke-width:5;stroke-linecap:butt;stroke-linejoin:round;stroke-miterlimit:10;stroke-dasharray:none;stroke-opacity:1"
         d="m 6192.5,2297.5 h -53.33" /><g
         transform="scale(10)"
         id="g136"><text
           id="text140"
           style="font-variant:normal;font-weight:normal;font-size:20px;font-family:Helvetica;-inkscape-font-specification:Helvetica;writing-mode:lr-tb;fill:#000000;fill-opacity:1;fill-rule:nonzero;stroke:none"
           transform="matrix(1,0,0,-1,52.6668,222.333)"><tspan
             id="tspan138"
             y="0"
             x="0 11.12 22.24">100</tspan></text>
</g><path
         id="path142"
         style="fill:none;stroke:#000000;stroke-width:5;stroke-linecap:butt;stroke-linejoin:round;stroke-miterlimit:10;stroke-dasharray:none;stroke-opacity:1"
         d="m 889.168,3219.17 h 52.5" /><path
         id="path144"
         style="fill:none;stroke:#000000;stroke-width:5;stroke-linecap:butt;stroke-linejoin:round;stroke-miterlimit:10;stroke-dasharray:none;stroke-opacity:1"
         d="m 6192.5,3219.17 h -53.33" /><g
         transform="scale(10)"
         id="g146"><text
           id="text150"
           style="font-variant:normal;font-weight:normal;font-size:20px;font-family:Helvetica;-inkscape-font-specification:Helvetica;writing-mode:lr-tb;fill:#000000;fill-opacity:1;fill-rule:nonzero;stroke:none"
           transform="matrix(1,0,0,-1,52.6668,314.5)"><tspan
             id="tspan148"
             y="0"
             x="0 11.12 22.24">150</tspan></text>
</g><path
         id="path152"
         style="fill:none;stroke:#000000;stroke-width:5;stroke-linecap:butt;stroke-linejoin:round;stroke-miterlimit:10;stroke-dasharray:none;stroke-opacity:1"
         d="M 889.168,453.332 H 6192.5" /><path
         id="path154"
         style="fill:none;stroke:#000000;stroke-width:5;stroke-linecap:butt;stroke-linejoin:round;stroke-miterlimit:10;stroke-dasharray:none;stroke-opacity:1"
         d="M 889.168,3220 H 6192.5" /><path
         id="path156"
         style="fill:none;stroke:#000000;stroke-width:5;stroke-linecap:butt;stroke-linejoin:round;stroke-miterlimit:10;stroke-dasharray:none;stroke-opacity:1"
         d="M 889.168,453.332 V 3220" /><path
         id="path158"
         style="fill:none;stroke:#000000;stroke-width:5;stroke-linecap:butt;stroke-linejoin:round;stroke-miterlimit:10;stroke-dasharray:none;stroke-opacity:1"
         d="M 6192.5,453.332 V 3220" /><g
         id="g160"><g
           clip-path="url(#clipPath166)"
           id="g162"><path
             id="path168"
             style="fill:none;stroke:#0000ff;stroke-width:20;stroke-linecap:butt;stroke-linejoin:round;stroke-miterlimit:10;stroke-dasharray:none;stroke-opacity:1"
             d="m 1145,733.332 685,319.168 684.17,313.33 684.16,284.17 684.17,283.33 684.17,260.84 684.16,274.16 685,268.34" /></g></g><g
         id="g170"><g
           clip-path="url(#clipPath176)"
           id="g172"><path
             id="path178"
             style="fill:#0000ff;fill-opacity:1;fill-rule:nonzero;stroke:none"
             d="m 1195,733.332 c 0,-27.613 -22.39,-50 -50,-50 -27.61,0 -50,22.387 -50,50 0,27.613 22.39,50 50,50 27.61,0 50,-22.387 50,-50" /><path
             id="path180"
             style="fill:#0000ff;fill-opacity:1;fill-rule:nonzero;stroke:none"
             d="m 1880,1052.5 c 0,-27.61 -22.39,-50 -50,-50 -27.61,0 -50,22.39 -50,50 0,27.61 22.39,50 50,50 27.61,0 50,-22.39 50,-50" /><path
             id="path182"
             style="fill:#0000ff;fill-opacity:1;fill-rule:nonzero;stroke:none"
             d="m 2564.17,1365.83 c 0,-27.61 -22.39,-50 -50,-50 -27.62,0 -50,22.39 -50,50 0,27.62 22.38,50 50,50 27.61,0 50,-22.38 50,-50" /><path
             id="path184"
             style="fill:#0000ff;fill-opacity:1;fill-rule:nonzero;stroke:none"
             d="m 3248.33,1650 c 0,-27.61 -22.38,-50 -50,-50 -27.61,0 -50,22.39 -50,50 0,27.61 22.39,50 50,50 27.62,0 50,-22.39 50,-50" /><path
             id="path186"
             style="fill:#0000ff;fill-opacity:1;fill-rule:nonzero;stroke:none"
             d="m 3932.5,1933.33 c 0,-27.61 -22.39,-50 -50,-50 -27.61,0 -50,22.39 -50,50 0,27.62 22.39,50 50,50 27.61,0 50,-22.38 50,-50" /><path
             id="path188"
             style="fill:#0000ff;fill-opacity:1;fill-rule:nonzero;stroke:none"
             d="m 4616.67,2194.17 c 0,-27.62 -22.39,-50 -50,-50 -27.62,0 -50,22.38 -50,50 0,27.61 22.38,50 50,50 27.61,0 50,-22.39 50,-50" /><path
             id="path190"
             style="fill:#0000ff;fill-opacity:1;fill-rule:nonzero;stroke:none"
             d="m 5300.83,2468.33 c 0,-27.61 -22.38,-50 -50,-50 -27.61,0 -50,22.39 -50,50 0,27.62 22.39,50 50,50 27.62,0 50,-22.38 50,-50" /><path
             id="path192"
             style="fill:#0000ff;fill-opacity:1;fill-rule:nonzero;stroke:none"
             d="m 5985.83,2736.67 c 0,-27.62 -22.38,-50 -50,-50 -27.61,0 -50,22.38 -50,50 0,27.61 22.39,50 50,50 27.62,0 50,-22.39 50,-50" /><path
             id="path194"
             style="fill:none;stroke:#0000ff;stroke-width:20;stroke-linecap:butt;stroke-linejoin:round;stroke-miterlimit:10;stroke-dasharray:none;stroke-opacity:1"
             d="m 1195,733.332 c 0,-27.613 -22.39,-50 -50,-50 -27.61,0 -50,22.387 -50,50 0,27.613 22.39,50 50,50 27.61,0 50,-22.387 50,-50" /><path
             id="path196"
             style="fill:none;stroke:#0000ff;stroke-width:20;stroke-linecap:butt;stroke-linejoin:round;stroke-miterlimit:10;stroke-dasharray:none;stroke-opacity:1"
             d="m 1880,1052.5 c 0,-27.61 -22.39,-50 -50,-50 -27.61,0 -50,22.39 -50,50 0,27.61 22.39,50 50,50 27.61,0 50,-22.39 50,-50" /><path
             id="path198"
             style="fill:none;stroke:#0000ff;stroke-width:20;stroke-linecap:butt;stroke-linejoin:round;stroke-miterlimit:10;stroke-dasharray:none;stroke-opacity:1"
             d="m 2564.17,1365.83 c 0,-27.61 -22.39,-50 -50,-50 -27.62,0 -50,22.39 -50,50 0,27.62 22.38,50 50,50 27.61,0 50,-22.38 50,-50" /><path
             id="path200"
             style="fill:none;stroke:#0000ff;stroke-width:20;stroke-linecap:butt;stroke-linejoin:round;stroke-miterlimit:10;stroke-dasharray:none;stroke-opacity:1"
             d="m 3248.33,1650 c 0,-27.61 -22.38,-50 -50,-50 -27.61,0 -50,22.39 -50,50 0,27.61 22.39,50 50,50 27.62,0 50,-22.39 50,-50" /><path
             id="path202"
             style="fill:none;stroke:#0000ff;stroke-width:20;stroke-linecap:butt;stroke-linejoin:round;stroke-miterlimit:10;stroke-dasharray:none;stroke-opacity:1"
             d="m 3932.5,1933.33 c 0,-27.61 -22.39,-50 -50,-50 -27.61,0 -50,22.39 -50,50 0,27.62 22.39,50 50,50 27.61,0 50,-22.38 50,-50" /><path
             id="path204"
             style="fill:none;stroke:#0000ff;stroke-width:20;stroke-linecap:butt;stroke-linejoin:round;stroke-miterlimit:10;stroke-dasharray:none;stroke-opacity:1"
             d="m 4616.67,2194.17 c 0,-27.62 -22.39,-50 -50,-50 -27.62,0 -50,22.38 -50,50 0,27.61 22.38,50 50,50 27.61,0 50,-22.39 50,-50" /><path
             id="path206"
             style="fill:none;stroke:#0000ff;stroke-width:20;stroke-linecap:butt;stroke-linejoin:round;stroke-miterlimit:10;stroke-dasharray:none;stroke-opacity:1"
             d="m 5300.83,2468.33 c 0,-27.61 -22.38,-50 -50,-50 -27.61,0 -50,22.39 -50,50 0,27.62 22.39,50 50,50 27.62,0 50,-22.38 50,-50" /><path
             id="path208"
             style="fill:none;stroke:#0000ff;stroke-width:20;stroke-linecap:butt;stroke-linejoin:round;stroke-miterlimit:10;stroke-dasharray:none;stroke-opacity:1"
             d="m 5985.83,2736.67 c 0,-27.62 -22.38,-50 -50,-50 -27.61,0 -50,22.38 -50,50 0,27.61 22.39,50 50,50 27.62,0 50,-22.39 50,-50" /></g></g><g
         id="g210"><g
           clip-path="url(#clipPath216)"
           id="g212"><path
             id="path218"
             style="fill:none;stroke:#008000;stroke-width:20;stroke-linecap:butt;stroke-linejoin:round;stroke-miterlimit:10;stroke-dasharray:none;stroke-opacity:1"
             d="m 1145,708.332 685,294.998 684.17,299.17 684.16,163.33 684.17,236.67 684.17,240.83 684.16,6.67 685,193.33" /></g></g><g
         id="g220"><g
           clip-path="url(#clipPath226)"
           id="g222"><path
             id="path228"
             style="fill:#ffffff;fill-opacity:1;fill-rule:evenodd;stroke:none"
             d="m 1105.83,669.168 h 78.3359 V 747.5 H 1105.83 Z" /><path
             id="path230"
             style="fill:none;stroke:#008000;stroke-width:20;stroke-linecap:butt;stroke-linejoin:miter;stroke-miterlimit:10;stroke-dasharray:none;stroke-opacity:1"
             d="m 1105.83,669.168 h 78.3359 V 747.5 H 1105.83 Z" /><path
             id="path232"
             style="fill:#ffffff;fill-opacity:1;fill-rule:evenodd;stroke:none"
             d="m 1790.83,964.168 h 78.3359 V 1042.5 H 1790.83 Z" /><path
             id="path234"
             style="fill:none;stroke:#008000;stroke-width:20;stroke-linecap:butt;stroke-linejoin:miter;stroke-miterlimit:10;stroke-dasharray:none;stroke-opacity:1"
             d="m 1790.83,964.168 h 78.3359 V 1042.5 H 1790.83 Z" /><path
             id="path236"
             style="fill:#ffffff;fill-opacity:1;fill-rule:evenodd;stroke:none"
             d="m 2475,1263.33 h 78.332 v 78.3359 H 2475 Z" /><path
             id="path238"
             style="fill:none;stroke:#008000;stroke-width:20;stroke-linecap:butt;stroke-linejoin:miter;stroke-miterlimit:10;stroke-dasharray:none;stroke-opacity:1"
             d="m 2475,1263.33 h 78.332 v 78.3359 H 2475 Z" /><path
             id="path240"
             style="fill:#ffffff;fill-opacity:1;fill-rule:evenodd;stroke:none"
             d="m 3159.17,1426.67 h 78.332 v 78.332 h -78.332 z" /><path
             id="path242"
             style="fill:none;stroke:#008000;stroke-width:20;stroke-linecap:butt;stroke-linejoin:miter;stroke-miterlimit:10;stroke-dasharray:none;stroke-opacity:1"
             d="m 3159.17,1426.67 h 78.332 v 78.332 h -78.332 z" /><path
             id="path244"
             style="fill:#ffffff;fill-opacity:1;fill-rule:evenodd;stroke:none"
             d="m 3843.33,1663.33 h 78.3359 v 78.3359 H 3843.33 Z" /><path
             id="path246"
             style="fill:none;stroke:#008000;stroke-width:20;stroke-linecap:butt;stroke-linejoin:miter;stroke-miterlimit:10;stroke-dasharray:none;stroke-opacity:1"
             d="m 3843.33,1663.33 h 78.3359 v 78.3359 H 3843.33 Z" /><path
             id="path248"
             style="fill:#ffffff;fill-opacity:1;fill-rule:evenodd;stroke:none"
             d="m 4527.5,1904.17 h 78.332 v 78.332 H 4527.5 Z" /><path
             id="path250"
             style="fill:none;stroke:#008000;stroke-width:20;stroke-linecap:butt;stroke-linejoin:miter;stroke-miterlimit:10;stroke-dasharray:none;stroke-opacity:1"
             d="m 4527.5,1904.17 h 78.332 v 78.332 H 4527.5 Z" /><path
             id="path252"
             style="fill:#ffffff;fill-opacity:1;fill-rule:evenodd;stroke:none"
             d="m 5211.67,1910.83 h 78.332 v 78.3359 h -78.332 z" /><path
             id="path254"
             style="fill:none;stroke:#008000;stroke-width:20;stroke-linecap:butt;stroke-linejoin:miter;stroke-miterlimit:10;stroke-dasharray:none;stroke-opacity:1"
             d="m 5211.67,1910.83 h 78.332 v 78.3359 h -78.332 z" /><path
             id="path256"
             style="fill:#ffffff;fill-opacity:1;fill-rule:evenodd;stroke:none"
             d="m 5896.67,2104.17 h 78.332 v 78.332 h -78.332 z" /><path
             id="path258"
             style="fill:none;stroke:#008000;stroke-width:20;stroke-linecap:butt;stroke-linejoin:miter;stroke-miterlimit:10;stroke-dasharray:none;stroke-opacity:1"
             d="m 5896.67,2104.17 h 78.332 v 78.332 h -78.332 z" /></g></g><g
         id="g260"><g
           clip-path="url(#clipPath266)"
           id="g262"><path
             id="path268"
             style="fill:none;stroke:#ff0000;stroke-width:20;stroke-linecap:butt;stroke-linejoin:round;stroke-miterlimit:10;stroke-dasharray:none;stroke-opacity:1"
             d="m 1145,610.832 685,121.668 684.17,105 684.16,78.332 684.17,84.998 684.17,78.34 684.16,76.66 685,79.17" /></g></g><g
         id="g270"><g
           clip-path="url(#clipPath276)"
           id="g272"><path
             id="path278"
             style="fill:#ffffff;fill-opacity:1;fill-rule:nonzero;stroke:none"
             d="m 1195,610.832 c 0,-27.613 -22.39,-50 -50,-50 -27.61,0 -50,22.387 -50,50 0,27.613 22.39,50 50,50 27.61,0 50,-22.387 50,-50" /><path
             id="path280"
             style="fill:#ffffff;fill-opacity:1;fill-rule:nonzero;stroke:none"
             d="m 1880,732.5 c 0,-27.613 -22.39,-50 -50,-50 -27.61,0 -50,22.387 -50,50 0,27.613 22.39,50 50,50 27.61,0 50,-22.387 50,-50" /><path
             id="path282"
             style="fill:#ffffff;fill-opacity:1;fill-rule:nonzero;stroke:none"
             d="m 2564.17,837.5 c 0,-27.613 -22.39,-50 -50,-50 -27.62,0 -50,22.387 -50,50 0,27.613 22.38,50 50,50 27.61,0 50,-22.387 50,-50" /><path
             id="path284"
             style="fill:#ffffff;fill-opacity:1;fill-rule:nonzero;stroke:none"
             d="m 3248.33,915.832 c 0,-27.613 -22.38,-50 -50,-50 -27.61,0 -50,22.387 -50,50 0,27.613 22.39,50 50,50 27.62,0 50,-22.387 50,-50" /><path
             id="path286"
             style="fill:#ffffff;fill-opacity:1;fill-rule:nonzero;stroke:none"
             d="m 3932.5,1000.83 c 0,-27.611 -22.39,-49.998 -50,-49.998 -27.61,0 -50,22.387 -50,49.998 0,27.62 22.39,50 50,50 27.61,0 50,-22.38 50,-50" /><path
             id="path288"
             style="fill:#ffffff;fill-opacity:1;fill-rule:nonzero;stroke:none"
             d="m 4616.67,1079.17 c 0,-27.62 -22.39,-50 -50,-50 -27.62,0 -50,22.38 -50,50 0,27.61 22.38,50 50,50 27.61,0 50,-22.39 50,-50" /><path
             id="path290"
             style="fill:#ffffff;fill-opacity:1;fill-rule:nonzero;stroke:none"
             d="m 5300.83,1155.83 c 0,-27.61 -22.38,-50 -50,-50 -27.61,0 -50,22.39 -50,50 0,27.62 22.39,50 50,50 27.62,0 50,-22.38 50,-50" /><path
             id="path292"
             style="fill:#ffffff;fill-opacity:1;fill-rule:nonzero;stroke:none"
             d="m 5985.83,1235 c 0,-27.61 -22.38,-50 -50,-50 -27.61,0 -50,22.39 -50,50 0,27.61 22.39,50 50,50 27.62,0 50,-22.39 50,-50" /><path
             id="path294"
             style="fill:none;stroke:#ff0000;stroke-width:20;stroke-linecap:butt;stroke-linejoin:round;stroke-miterlimit:10;stroke-dasharray:none;stroke-opacity:1"
             d="m 1195,610.832 c 0,-27.613 -22.39,-50 -50,-50 -27.61,0 -50,22.387 -50,50 0,27.613 22.39,50 50,50 27.61,0 50,-22.387 50,-50" /><path
             id="path296"
             style="fill:none;stroke:#ff0000;stroke-width:20;stroke-linecap:butt;stroke-linejoin:round;stroke-miterlimit:10;stroke-dasharray:none;stroke-opacity:1"
             d="m 1880,732.5 c 0,-27.613 -22.39,-50 -50,-50 -27.61,0 -50,22.387 -50,50 0,27.613 22.39,50 50,50 27.61,0 50,-22.387 50,-50" /><path
             id="path298"
             style="fill:none;stroke:#ff0000;stroke-width:20;stroke-linecap:butt;stroke-linejoin:round;stroke-miterlimit:10;stroke-dasharray:none;stroke-opacity:1"
             d="m 2564.17,837.5 c 0,-27.613 -22.39,-50 -50,-50 -27.62,0 -50,22.387 -50,50 0,27.613 22.38,50 50,50 27.61,0 50,-22.387 50,-50" /><path
             id="path300"
             style="fill:none;stroke:#ff0000;stroke-width:20;stroke-linecap:butt;stroke-linejoin:round;stroke-miterlimit:10;stroke-dasharray:none;stroke-opacity:1"
             d="m 3248.33,915.832 c 0,-27.613 -22.38,-50 -50,-50 -27.61,0 -50,22.387 -50,50 0,27.613 22.39,50 50,50 27.62,0 50,-22.387 50,-50" /><path
             id="path302"
             style="fill:none;stroke:#ff0000;stroke-width:20;stroke-linecap:butt;stroke-linejoin:round;stroke-miterlimit:10;stroke-dasharray:none;stroke-opacity:1"
             d="m 3932.5,1000.83 c 0,-27.611 -22.39,-49.998 -50,-49.998 -27.61,0 -50,22.387 -50,49.998 0,27.62 22.39,50 50,50 27.61,0 50,-22.38 50,-50" /><path
             id="path304"
             style="fill:none;stroke:#ff0000;stroke-width:20;stroke-linecap:butt;stroke-linejoin:round;stroke-miterlimit:10;stroke-dasharray:none;stroke-opacity:1"
             d="m 4616.67,1079.17 c 0,-27.62 -22.39,-50 -50,-50 -27.62,0 -50,22.38 -50,50 0,27.61 22.38,50 50,50 27.61,0 50,-22.39 50,-50" /><path
             id="path306"
             style="fill:none;stroke:#ff0000;stroke-width:20;stroke-linecap:butt;stroke-linejoin:round;stroke-miterlimit:10;stroke-dasharray:none;stroke-opacity:1"
             d="m 5300.83,1155.83 c 0,-27.61 -22.38,-50 -50,-50 -27.61,0 -50,22.39 -50,50 0,27.62 22.39,50 50,50 27.62,0 50,-22.38 50,-50" /><path
             id="path308"
             style="fill:none;stroke:#ff0000;stroke-width:20;stroke-linecap:butt;stroke-linejoin:round;stroke-miterlimit:10;stroke-dasharray:none;stroke-opacity:1"
             d="m 5985.83,1235 c 0,-27.61 -22.38,-50 -50,-50 -27.61,0 -50,22.39 -50,50 0,27.61 22.39,50 50,50 27.62,0 50,-22.39 50,-50" /></g></g><g
         transform="scale(10)"
         id="g310"><text
           id="text314"
           style="font-variant:normal;font-weight:normal;font-size:20px;font-family:Helvetica;-inkscape-font-specification:Helvetica;writing-mode:lr-tb;fill:#000000;fill-opacity:1;fill-rule:nonzero;stroke:none"
           transform="matrix(1,0,0,-1,317.167,4.6668)"><tspan
             id="tspan312"
             y="0"
             x="0 18.879999 30 36.66 46.66 57.779999 64.440002">Workers</tspan></text>
<text
           id="text318"
           style="font-variant:normal;font-weight:normal;font-size:20px;font-family:Helvetica;-inkscape-font-specification:Helvetica;writing-mode:lr-tb;fill:#000000;fill-opacity:1;fill-rule:nonzero;stroke:none"
           transform="matrix(0,1,1,0,43.5832,117.417)"><tspan
             id="tspan316"
             y="0"
             x="0 16.66 27.780001 38.900002 50.02 55.580002 65.580002 76.699997 87.82 98.940002 110.06 121.18">Mean speedup</tspan></text>
</g><path
         id="path320"
         style="fill:#ffffff;fill-opacity:1;fill-rule:evenodd;stroke:none"
         d="m 956.668,2334.17 h 3518.33 v 830 H 956.668 Z" /><path
         id="path322"
         style="fill:none;stroke:#ffffff;stroke-width:5;stroke-linecap:butt;stroke-linejoin:round;stroke-miterlimit:10;stroke-dasharray:none;stroke-opacity:1"
         d="m 956.668,2334.17 v 830 H 4475 v -830 H 956.668" /><path
         id="path324"
         style="fill:none;stroke:#000000;stroke-width:5;stroke-linecap:butt;stroke-linejoin:round;stroke-miterlimit:10;stroke-dasharray:none;stroke-opacity:1"
         d="M 956.668,2334.17 H 4475" /><path
         id="path326"
         style="fill:none;stroke:#000000;stroke-width:5;stroke-linecap:butt;stroke-linejoin:round;stroke-miterlimit:10;stroke-dasharray:none;stroke-opacity:1"
         d="M 956.668,3164.17 H 4475" /><path
         id="path328"
         style="fill:none;stroke:#000000;stroke-width:5;stroke-linecap:butt;stroke-linejoin:round;stroke-miterlimit:10;stroke-dasharray:none;stroke-opacity:1"
         d="m 956.668,2334.17 v 830" /><path
         id="path330"
         style="fill:none;stroke:#000000;stroke-width:5;stroke-linecap:butt;stroke-linejoin:round;stroke-miterlimit:10;stroke-dasharray:none;stroke-opacity:1"
         d="m 4475,2334.17 v 830" /><path
         id="path332"
         style="fill:none;stroke:#000000;stroke-width:5;stroke-linecap:butt;stroke-linejoin:round;stroke-miterlimit:10;stroke-dasharray:none;stroke-opacity:1"
         d="M 956.668,2334.17 H 4475" /><path
         id="path334"
         style="fill:none;stroke:#000000;stroke-width:5;stroke-linecap:butt;stroke-linejoin:round;stroke-miterlimit:10;stroke-dasharray:none;stroke-opacity:1"
         d="m 956.668,2334.17 v 830" /><path
         id="path336"
         style="fill:none;stroke:#000000;stroke-width:5;stroke-linecap:butt;stroke-linejoin:round;stroke-miterlimit:10;stroke-dasharray:none;stroke-opacity:1"
         d="M 956.668,2334.17 H 4475" /><path
         id="path338"
         style="fill:none;stroke:#000000;stroke-width:5;stroke-linecap:butt;stroke-linejoin:round;stroke-miterlimit:10;stroke-dasharray:none;stroke-opacity:1"
         d="M 956.668,3164.17 H 4475" /><path
         id="path340"
         style="fill:none;stroke:#000000;stroke-width:5;stroke-linecap:butt;stroke-linejoin:round;stroke-miterlimit:10;stroke-dasharray:none;stroke-opacity:1"
         d="m 956.668,2334.17 v 830" /><path
         id="path342"
         style="fill:none;stroke:#000000;stroke-width:5;stroke-linecap:butt;stroke-linejoin:round;stroke-miterlimit:10;stroke-dasharray:none;stroke-opacity:1"
         d="m 4475,2334.17 v 830" /><g
         transform="scale(10)"
         id="g344"><text
           id="text348"
           style="font-variant:normal;font-weight:normal;font-size:18px;font-family:Helvetica;-inkscape-font-specification:Helvetica;writing-mode:lr-tb;fill:#000000;fill-opacity:1;fill-rule:nonzero;stroke:none"
           transform="matrix(1,0,0,-1,134.667,294.917)"><tspan
             id="tspan346"
             y="0"
             x="0 12.996 23.004 33.012001 43.02 48.023998 58.032001 63.035999 73.043999 83.052002 89.045998 93.042 103.05 113.058 118.062 127.062 137.07001 147.078 157.086 163.08 173.088 183.09599 187.092 197.10001 212.09399 217.09801 226.09801 236.106 240.10201 249.10201 253.09801 263.10599">Update during subproblem solving</tspan></text>
</g><g
         id="g350"><g
           clip-path="url(#clipPath356)"
           id="g352"><path
             id="path358"
             style="fill:none;stroke:#0000ff;stroke-width:20;stroke-linecap:butt;stroke-linejoin:round;stroke-miterlimit:10;stroke-dasharray:none;stroke-opacity:1"
             d="m 1016.67,3013.33 h 300" /></g></g><g
         id="g360"><g
           clip-path="url(#clipPath366)"
           id="g362"><path
             id="path368"
             style="fill:#0000ff;fill-opacity:1;fill-rule:nonzero;stroke:none"
             d="m 1216.67,3013.33 c 0,-27.61 -22.39,-50 -50,-50 -27.62,0 -50,22.39 -50,50 0,27.62 22.38,50 50,50 27.61,0 50,-22.38 50,-50" /><path
             id="path370"
             style="fill:none;stroke:#0000ff;stroke-width:20;stroke-linecap:butt;stroke-linejoin:round;stroke-miterlimit:10;stroke-dasharray:none;stroke-opacity:1"
             d="m 1216.67,3013.33 c 0,-27.61 -22.39,-50 -50,-50 -27.62,0 -50,22.39 -50,50 0,27.62 22.38,50 50,50 27.61,0 50,-22.38 50,-50" /></g></g><g
         transform="scale(10)"
         id="g372"><text
           id="text376"
           style="font-variant:normal;font-weight:normal;font-size:18px;font-family:Helvetica;-inkscape-font-specification:Helvetica;writing-mode:lr-tb;fill:#000000;fill-opacity:1;fill-rule:nonzero;stroke:none"
           transform="matrix(1,0,0,-1,134.667,268.417)"><tspan
             id="tspan374"
             y="0"
             x="0 12.996 23.004 28.007999 38.015999 48.023998 58.032001 68.040001 73.043999 83.052002 92.052002 97.056 107.064 117.072 123.066 127.062 137.07001 147.078 152.082 161.082 171.09 181.09801 191.106 197.10001 207.108 217.116 221.112 231.12 246.114 251.118 260.11801 270.12601 274.12201 283.12201 287.11801 297.12601">No updates during subproblem solving</tspan></text>
</g><g
         id="g378"><g
           clip-path="url(#clipPath384)"
           id="g380"><path
             id="path386"
             style="fill:none;stroke:#008000;stroke-width:20;stroke-linecap:butt;stroke-linejoin:round;stroke-miterlimit:10;stroke-dasharray:none;stroke-opacity:1"
             d="m 1016.67,2749.17 h 300" /></g></g><g
         id="g388"><g
           clip-path="url(#clipPath394)"
           id="g390"><path
             id="path396"
             style="fill:#ffffff;fill-opacity:1;fill-rule:evenodd;stroke:none"
             d="m 1127.5,2710 h 78.332 v 78.332 H 1127.5 Z" /><path
             id="path398"
             style="fill:none;stroke:#008000;stroke-width:20;stroke-linecap:butt;stroke-linejoin:miter;stroke-miterlimit:10;stroke-dasharray:none;stroke-opacity:1"
             d="m 1127.5,2710 h 78.332 v 78.332 H 1127.5 Z" /></g></g><g
         transform="scale(10)"
         id="g400"><text
           id="text404"
           style="font-variant:normal;font-weight:normal;font-size:18px;font-family:Helvetica;-inkscape-font-specification:Helvetica;writing-mode:lr-tb;fill:#000000;fill-opacity:1;fill-rule:nonzero;stroke:none"
           transform="matrix(1,0,0,-1,134.667,242)"><tspan
             id="tspan402"
             y="0"
             x="0 12.996 23.004 28.007999 37.007999 47.015999 62.009998 77.003998 87.012001 97.019997 101.016 110.016 120.024 125.028 129.024 139.032">No communication</tspan></text>
</g><g
         id="g406"><g
           clip-path="url(#clipPath412)"
           id="g408"><path
             id="path414"
             style="fill:none;stroke:#ff0000;stroke-width:20;stroke-linecap:butt;stroke-linejoin:round;stroke-miterlimit:10;stroke-dasharray:none;stroke-opacity:1"
             d="m 1016.67,2485.83 h 300" /></g></g><g
         id="g416"><g
           clip-path="url(#clipPath422)"
           id="g418"><path
             id="path424"
             style="fill:#ffffff;fill-opacity:1;fill-rule:nonzero;stroke:none"
             d="m 1216.67,2485.83 c 0,-27.61 -22.39,-50 -50,-50 -27.62,0 -50,22.39 -50,50 0,27.62 22.38,50 50,50 27.61,0 50,-22.38 50,-50" /><path
             id="path426"
             style="fill:none;stroke:#ff0000;stroke-width:20;stroke-linecap:butt;stroke-linejoin:round;stroke-miterlimit:10;stroke-dasharray:none;stroke-opacity:1"
             d="m 1216.67,2485.83 c 0,-27.61 -22.39,-50 -50,-50 -27.62,0 -50,22.39 -50,50 0,27.62 22.38,50 50,50 27.61,0 50,-22.38 50,-50" /></g></g></g></g></svg>